<svg width="41" height="40" viewBox="0 0 41 40" fill="none" xmlns="http://www.w3.org/2000/svg">
<g clip-path="url(#clip0)">
<path d="M12.0141 6.99065V6.61206C12.0141 5.34429 10.9745 4.31665 9.6922 4.31665H3.15149C1.86917 4.31665 0.82959 5.34436 0.82959 6.61214V9.06166V35.0337C0.82959 35.6676 1.34938 36.1814 1.99054 36.1814H34.4125V9.28614C34.4125 8.01837 33.3729 6.99073 32.0906 6.99073L12.0141 6.99065Z" fill="#DB710D"/>
<path d="M12.0141 6.99065V6.61206C12.0141 5.34429 10.9745 4.31665 9.6922 4.31665H3.15149C1.86917 4.31665 0.82959 5.34436 0.82959 6.61214V9.06166V35.0337C0.82959 35.6676 1.34938 36.1814 1.99054 36.1814H17.4999V6.99065H12.0141Z" fill="#F58F00"/>
<path d="M37.8642 12.455H7.65596C6.55382 12.455 5.60348 13.221 5.38156 14.2883L0.958984 35.5588C1.15185 35.9283 1.54096 36.1814 1.99049 36.1814H35.7228C36.9063 36.1814 37.9004 35.3014 38.0307 34.1384L40.1721 15.0028C40.3243 13.6435 39.2477 12.455 37.8642 12.455Z" fill="#FCC200"/>
<path d="M21.9994 12.455H7.65596C6.55382 12.455 5.60349 13.221 5.38156 14.2883L0.958984 35.5588C1.15185 35.9283 1.54096 36.1814 1.99049 36.1814H19.3437L21.9994 12.455Z" fill="#FFDE47"/>
</g>
<defs>
<clipPath id="clip0">
<rect width="39.3569" height="38.9078" fill="white" transform="translate(0.82959 0.795166)"/>
</clipPath>
</defs>
</svg>
