<svg width="17" height="17" viewBox="0 0 17 17" fill="none" xmlns="http://www.w3.org/2000/svg">
<path fill-rule="evenodd" clip-rule="evenodd" d="M8.16538 0.171021C5.98541 0.171021 5.71182 0.181013 4.85562 0.221858C4.00109 0.262879 3.41781 0.404698 2.90743 0.612782C2.37949 0.827703 1.93166 1.1152 1.4855 1.58308C1.039 2.05079 0.764751 2.52025 0.559062 3.0735C0.360062 3.6087 0.224608 4.22033 0.186146 5.11577C0.147851 6.01332 0.137817 6.30029 0.137817 8.58553C0.137817 10.8708 0.147517 11.1567 0.186313 12.0542C0.225612 12.95 0.360898 13.5615 0.559229 14.0965C0.764417 14.6499 1.03867 15.1194 1.485 15.5871C1.93099 16.0552 2.37882 16.3434 2.90643 16.5583C3.41714 16.7664 4.00059 16.9082 4.85495 16.9492C5.71116 16.99 5.98457 17 8.16437 17C10.3445 17 10.6173 16.99 11.4735 16.9492C12.328 16.9082 12.9119 16.7664 13.4227 16.5583C13.9504 16.3434 14.3976 16.0552 14.8436 15.5871C15.2901 15.1194 15.5643 14.6499 15.77 14.0967C15.9673 13.5615 16.1028 12.9499 16.1429 12.0544C16.1814 11.1569 16.1914 10.8708 16.1914 8.58553C16.1914 6.30029 16.1814 6.01349 16.1429 5.11595C16.1028 4.22015 15.9673 3.6087 15.77 3.07368C15.5643 2.52025 15.2901 2.05079 14.8436 1.58308C14.3971 1.11502 13.9506 0.827527 13.4222 0.612782C12.9104 0.404698 12.3268 0.262879 11.4723 0.221858C10.6161 0.181013 10.3435 0.171021 8.16287 0.171021H8.16538ZM7.44544 1.68733C7.65916 1.68698 7.89762 1.68733 8.16552 1.68733C10.3087 1.68733 10.5627 1.6954 11.4091 1.73572C12.1917 1.77323 12.6164 1.91032 12.8994 2.02549C13.274 2.178 13.541 2.36032 13.8218 2.65483C14.1027 2.94933 14.2767 3.22982 14.4225 3.62249C14.5324 3.91876 14.6633 4.36402 14.6989 5.18444C14.7374 6.07147 14.7457 6.33793 14.7457 8.58355C14.7457 10.8292 14.7374 11.0956 14.6989 11.9827C14.6631 12.8031 14.5324 13.2483 14.4225 13.5446C14.277 13.9373 14.1027 14.2169 13.8218 14.5112C13.5409 14.8057 13.2741 14.988 12.8994 15.1406C12.6168 15.2563 12.1917 15.393 11.4091 15.4305C10.5629 15.4708 10.3087 15.4796 8.16552 15.4796C6.02217 15.4796 5.76816 15.4708 4.92199 15.4305C4.13937 15.3926 3.71461 15.2555 3.4315 15.1404C3.05691 14.9879 2.78934 14.8055 2.5084 14.511C2.22746 14.2165 2.05355 13.9368 1.90772 13.5439C1.79786 13.2476 1.66692 12.8024 1.6313 11.982C1.59284 11.0949 1.58514 10.8285 1.58514 8.58144C1.58514 6.33442 1.59284 6.06936 1.6313 5.18233C1.66709 4.36192 1.79786 3.91665 1.90772 3.62004C2.05321 3.22736 2.22746 2.94688 2.5084 2.65237C2.78934 2.35786 3.05691 2.17555 3.4315 2.02269C3.71444 1.90699 4.13937 1.77025 4.92199 1.73256C5.66247 1.6975 5.94943 1.68698 7.44544 1.68523V1.68733ZM12.4503 3.08451C11.9185 3.08451 11.4871 3.53626 11.4871 4.0939C11.4871 4.65136 11.9185 5.10364 12.4503 5.10364C12.9821 5.10364 13.4135 4.65136 13.4135 4.0939C13.4135 3.53644 12.9821 3.08416 12.4503 3.08416V3.08451ZM8.16548 4.26431C5.88902 4.26431 4.04333 6.19912 4.04333 8.58551C4.04333 10.9719 5.88902 12.9058 8.16548 12.9058C10.4419 12.9058 12.287 10.9719 12.287 8.58551C12.287 6.19912 10.4418 4.26431 8.16531 4.26431H8.16548ZM8.16538 5.78065C9.64299 5.78065 10.841 7.03634 10.841 8.58549C10.841 10.1345 9.64299 11.3903 8.16538 11.3903C6.68759 11.3903 5.48975 10.1345 5.48975 8.58549C5.48975 7.03634 6.68759 5.78065 8.16538 5.78065Z" fill="white"/>
</svg>
