<svg width="20" height="16" viewBox="0 0 20 16" fill="none" xmlns="http://www.w3.org/2000/svg">
<path d="M18.125 0.580322L1.875 0.580322C1.35417 0.580322 0.911458 0.762614 0.546875 1.1272C0.182292 1.49178 0 1.93449 0 2.45532L0 13.7053C0 14.2262 0.182292 14.6689 0.546875 15.0334C0.911458 15.398 1.35417 15.5803 1.875 15.5803H18.125C18.6458 15.5803 19.0885 15.398 19.4531 15.0334C19.8177 14.6689 20 14.2262 20 13.7053V2.45532C20 1.93449 19.8177 1.49178 19.4531 1.1272C19.0885 0.762614 18.6458 0.580322 18.125 0.580322ZM1.875 1.83032L18.125 1.83032C18.3073 1.83032 18.4505 1.89543 18.5547 2.02563C18.6849 2.1298 18.75 2.27303 18.75 2.45532V4.05688C17.8385 4.83813 15.8724 6.42668 12.8516 8.82251L12.4609 9.13501C11.9401 9.57772 11.5365 9.89022 11.25 10.0725C10.7552 10.4111 10.3385 10.5803 10 10.5803C9.66146 10.5803 9.24479 10.4111 8.75 10.0725C8.4375 9.89022 8.02083 9.57772 7.5 9.13501L7.14844 8.82251C4.1276 6.42668 2.16146 4.83813 1.25 4.05688V2.45532C1.25 2.27303 1.30208 2.1298 1.40625 2.02563C1.53646 1.89543 1.69271 1.83032 1.875 1.83032ZM18.125 14.3303H1.875C1.69271 14.3303 1.53646 14.2782 1.40625 14.1741C1.30208 14.0439 1.25 13.8876 1.25 13.7053L1.25 5.69751C2.16146 6.42668 3.86719 7.79386 6.36719 9.79907L6.75781 10.1116C7.35677 10.6324 7.85156 11.01 8.24219 11.2444C8.89323 11.635 9.47917 11.8303 10 11.8303C10.5208 11.8303 11.1068 11.635 11.7578 11.2444C12.1224 11.01 12.6172 10.6324 13.2422 10.1116L13.6328 9.79907C16.1328 7.79386 17.8385 6.42668 18.75 5.69751V13.7053C18.75 13.8876 18.6849 14.0439 18.5547 14.1741C18.4505 14.2782 18.3073 14.3303 18.125 14.3303Z" fill="white"/>
</svg>
