<svg width="15" height="21" viewBox="0 0 15 21" fill="none" xmlns="http://www.w3.org/2000/svg">
<path d="M7.5 4.56091C6.45833 4.56091 5.57292 4.9255 4.84375 5.65466C4.11458 6.38383 3.75 7.26925 3.75 8.31091C3.75 9.35258 4.11458 10.238 4.84375 10.9672C5.57292 11.6963 6.45833 12.0609 7.5 12.0609C8.54167 12.0609 9.42708 11.6963 10.1562 10.9672C10.8854 10.238 11.25 9.35258 11.25 8.31091C11.25 7.26925 10.8854 6.38383 10.1562 5.65466C9.42708 4.9255 8.54167 4.56091 7.5 4.56091ZM7.5 10.8109C6.82292 10.8109 6.23698 10.5635 5.74219 10.0687C5.2474 9.57393 5 8.988 5 8.31091C5 7.63383 5.2474 7.04789 5.74219 6.5531C6.23698 6.05831 6.82292 5.81091 7.5 5.81091C8.17708 5.81091 8.76302 6.05831 9.25781 6.5531C9.7526 7.04789 10 7.63383 10 8.31091C10 8.988 9.7526 9.57393 9.25781 10.0687C8.76302 10.5635 8.17708 10.8109 7.5 10.8109ZM7.5 0.810913C6.14583 0.810913 4.89583 1.14945 3.75 1.82654C2.60417 2.50362 1.69271 3.41508 1.01562 4.56091C0.338542 5.70675 0 6.95675 0 8.31091C0 9.14425 0.104167 9.88643 0.3125 10.5375C0.520833 11.1625 0.924479 11.9437 1.52344 12.8812C1.9401 13.5323 2.79948 14.7953 4.10156 16.6703L6.71875 20.4203C6.90104 20.6807 7.16146 20.8109 7.5 20.8109C7.83854 20.8109 8.09896 20.6807 8.28125 20.4203L10.8984 16.6703C12.2005 14.7953 13.0599 13.5323 13.4766 12.8812C14.0755 11.9437 14.4792 11.1625 14.6875 10.5375C14.8958 9.88643 15 9.14425 15 8.31091C15 6.95675 14.6615 5.70675 13.9844 4.56091C13.3073 3.41508 12.3958 2.50362 11.25 1.82654C10.1042 1.14945 8.85417 0.810913 7.5 0.810913ZM7.5 19.3265C6.875 18.4151 6.06771 17.2562 5.07812 15.85C3.82812 14.0531 3.00781 12.8682 2.61719 12.2953C2.07031 11.4099 1.70573 10.7067 1.52344 10.1859C1.34115 9.63904 1.25 9.01404 1.25 8.31091C1.25 7.47758 1.40625 6.68331 1.71875 5.9281C2.03125 5.17289 2.48698 4.49581 3.08594 3.89685C3.6849 3.29789 4.36198 2.84216 5.11719 2.52966C5.8724 2.21716 6.66667 2.06091 7.5 2.06091C8.33333 2.06091 9.1276 2.21716 9.88281 2.52966C10.638 2.84216 11.3151 3.29789 11.9141 3.89685C12.513 4.49581 12.9688 5.17289 13.2812 5.9281C13.5938 6.68331 13.75 7.47758 13.75 8.31091C13.75 9.01404 13.6589 9.63904 13.4766 10.1859C13.2943 10.7067 12.9297 11.4099 12.3828 12.2953C11.9922 12.8682 11.1719 14.0531 9.92188 15.85L7.5 19.3265Z" fill="white"/>
</svg>
