<svg width="21" height="21" viewBox="0 0 21 21" fill="none" xmlns="http://www.w3.org/2000/svg">
<path d="M19.6297 20.0522L20.5281 16.1069C20.6063 15.8204 20.5672 15.547 20.4109 15.2866C20.2807 15.0261 20.0854 14.8308 19.825 14.7006L15.6063 12.9037C15.3458 12.7996 15.0854 12.7735 14.825 12.8256C14.5646 12.9037 14.3432 13.047 14.1609 13.2553L12.4422 15.3647C11.088 14.6876 9.8771 13.8152 8.80939 12.7475C7.74168 11.6798 6.86928 10.4689 6.1922 9.11469L8.30157 7.39594C8.50991 7.21364 8.64012 6.99229 8.6922 6.73187C8.77032 6.47146 8.7573 6.21104 8.65314 5.95062L6.85626 1.73187C6.72605 1.47146 6.53074 1.26312 6.27032 1.10687C6.00991 0.976664 5.73647 0.950623 5.45001 1.02875L1.5047 1.92719C1.24428 2.00531 1.02293 2.14854 0.840637 2.35687C0.658346 2.59125 0.5672 2.85166 0.5672 3.13812C0.5672 6.36729 1.37449 9.36208 2.98907 12.1225C4.57762 14.8308 6.71303 16.9662 9.39532 18.5287C12.1818 20.1694 15.2026 20.9897 18.4578 20.9897C18.7182 20.9897 18.9526 20.8985 19.1609 20.7162C19.3953 20.534 19.5516 20.3126 19.6297 20.0522ZM1.8172 3.13812L5.72345 2.23969L7.52032 6.45844L4.66876 8.76312C5.60626 10.7944 6.68699 12.422 7.91095 13.6459C9.13491 14.8699 10.7625 15.9506 12.7938 16.8881L15.0984 14.0366L19.3172 15.8334L18.4188 19.7397C15.424 19.7397 12.6375 18.9845 10.0594 17.4741C7.53335 15.9897 5.54116 13.9975 4.08282 11.4975C2.57241 8.91937 1.8172 6.13291 1.8172 3.13812Z" fill="white"/>
</svg>
