<svg width="21" height="17" viewBox="0 0 21 17" fill="none" xmlns="http://www.w3.org/2000/svg">
<path fill-rule="evenodd" clip-rule="evenodd" d="M10.3511 4.6478L10.3932 5.3757L9.69134 5.28657C7.13668 4.94491 4.90485 3.7862 3.00991 1.84018L2.0835 0.874594L1.84487 1.58764C1.33956 3.17714 1.6624 4.85577 2.71514 5.98477C3.27661 6.60868 3.15028 6.69781 2.18175 6.32643C1.84487 6.20759 1.5501 6.11846 1.52203 6.16303C1.42378 6.26701 1.76065 7.61883 2.02735 8.15362C2.3923 8.89638 3.13624 9.62428 3.95037 10.0551L4.63816 10.3967L3.82404 10.4116C3.03799 10.4116 3.00991 10.4265 3.09413 10.7384C3.37486 11.704 4.48376 12.729 5.71898 13.1747L6.58925 13.4866L5.83127 13.962C4.70834 14.6453 3.3889 15.0316 2.06946 15.0613C1.43781 15.0761 0.918457 15.1355 0.918457 15.1801C0.918457 15.3287 2.63092 16.1605 3.62752 16.4874C6.61732 17.4529 10.1686 17.037 12.8355 15.3881C14.7305 14.2145 16.6254 11.8823 17.5097 9.62428C17.987 8.42101 18.4642 6.22245 18.4642 5.16773C18.4642 4.4844 18.5063 4.39526 19.2924 3.57823C19.7556 3.10287 20.1907 2.58294 20.2749 2.43438C20.4153 2.15214 20.4013 2.15214 19.6854 2.40467C18.4923 2.85033 18.3239 2.79091 18.9134 2.12243C19.3485 1.64706 19.8679 0.785463 19.8679 0.532925C19.8679 0.48836 19.6573 0.562636 19.4187 0.696332C19.1661 0.844884 18.6046 1.06771 18.1835 1.20141L17.4255 1.45394L16.7377 0.963725C16.3587 0.696332 15.8253 0.399229 15.5446 0.310098C14.8287 0.102126 13.7339 0.131836 13.0882 0.369519C11.3336 1.038 10.2247 2.7612 10.3511 4.6478Z" fill="white"/>
</svg>
