<svg width="23" height="17" viewBox="0 0 23 17" fill="none" xmlns="http://www.w3.org/2000/svg">
<path fill-rule="evenodd" clip-rule="evenodd" d="M21.7957 2.66947C21.5397 1.68599 20.7853 0.911537 19.8275 0.648698C18.0916 0.171021 11.1304 0.171021 11.1304 0.171021C11.1304 0.171021 4.16923 0.171021 2.43327 0.648698C1.47542 0.911537 0.721075 1.68599 0.465075 2.66947C0 4.45192 0 8.17102 0 8.17102C0 8.17102 0 11.89 0.465075 13.6726C0.721075 14.6561 1.47542 15.4305 2.43327 15.6935C4.16923 16.171 11.1304 16.171 11.1304 16.171C11.1304 16.171 18.0916 16.171 19.8275 15.6935C20.7853 15.4305 21.5397 14.6561 21.7957 13.6726C22.2609 11.89 22.2609 8.17102 22.2609 8.17102C22.2609 8.17102 22.2609 4.45192 21.7957 2.66947Z" fill="white"/>
<path fill-rule="evenodd" clip-rule="evenodd" d="M9.0741 12.6098V5.29285L14.658 8.95147L9.0741 12.6098Z" fill="#4A99D3"/>
</svg>
